<svg id="Capa_1" enable-background="new 0 0 512 512" height="512" viewBox="0 0 512 512" width="512"
                xmlns="http://www.w3.org/2000/svg">
                    <g>
                        <path
                            d="m90.464 152.06v207.88h-72.012c-10.192 0-18.452-8.26-18.452-18.453v-170.974c0-10.192 8.26-18.452 18.452-18.452h72.012z"
                            fill="#334973" />
                        <path
                            d="m300.931 61.014v389.971c0 11.159-11.969 18.224-21.746 12.842l-188.721-103.887v-207.88l188.721-103.887c9.777-5.382 21.746 1.683 21.746 12.841z"
                            fill="#7ed8f6" />
                        <path d="m90.464 256v103.94h-72.012c-10.192 0-18.452-8.26-18.452-18.453v-85.487z"
                            fill="#1f3259" />
                        <path d="m300.931 256v194.986c0 11.159-11.969 18.224-21.746 12.842l-188.721-103.888v-103.94z"
                            fill="#6aa9ff" />
                    </g>
                    </svg>