<svg id="Capa_1" enable-background="new 0 0 512 512" height="512" viewBox="0 0 512 512" width="512"
                xmlns="http://www.w3.org/2000/svg">
                <g>
                    <g>
                        <path
                            d="m90.464 152.06v207.88h-72.012c-10.192 0-18.452-8.26-18.452-18.453v-170.974c0-10.192 8.26-18.452 18.452-18.452h72.012z"
                            fill="#334973" />
                        <path
                            d="m300.931 61.014v389.971c0 11.159-11.969 18.224-21.746 12.842l-188.721-103.887v-207.88l188.721-103.887c9.777-5.382 21.746 1.683 21.746 12.841z"
                            fill="#7ed8f6" />
                        <path d="m90.464 256v103.94h-72.012c-10.192 0-18.452-8.26-18.452-18.453v-85.487z"
                            fill="#1f3259" />
                        <path d="m300.931 256v194.986c0 11.159-11.969 18.224-21.746 12.842l-188.721-103.888v-103.94z"
                            fill="#6aa9ff" />
                    </g>
                    <g id="soundCross">
                        <path
                            d="m507.612 319.682c5.85 5.85 5.85 15.35 0 21.21-5.845 5.845-15.358 5.862-21.22 0l-63.67-63.68-63.68 63.68c-5.858 5.858-15.361 5.849-21.21 0-5.86-5.86-5.86-15.36 0-21.21l63.68-63.68-63.68-63.68c-5.86-5.85-5.86-15.35 0-21.21s15.35-5.86 21.21 0l63.68 63.68 63.67-63.68c5.86-5.86 15.36-5.86 21.22 0 5.85 5.86 5.85 15.36 0 21.21l-63.68 63.68z"
                            fill="#334973" />
                        <path
                            d="m507.612 340.893c-5.845 5.845-15.358 5.862-21.22 0l-63.67-63.68-63.68 63.68c-5.858 5.858-15.361 5.849-21.21 0-5.86-5.86-5.86-15.36 0-21.21l63.68-63.68h42.42l63.68 63.68c5.851 5.849 5.851 15.349 0 21.21z"
                            fill="#1f3259" />
                    </g>
                </g>
            </svg>